<!--?xml version="1.0" standalone="no"?-->

<svg version="1.0" xmlns="http://www.w3.org/2000/svg" width="300.000000pt" height="215.000000pt" viewBox="0 0 300.000000 215.000000" preserveAspectRatio="xMidYMid meet">
<g transform="translate(0.000000,215.000000) scale(0.100000,-0.100000)" fill="#62CC80" stroke="none">
<path d="M1506 2051 c-8 -12 3 -41 15 -41 28 0 51 -134 28 -157 -8 -8 -6 -17
9 -33 37 -40 37 -69 0 -101 -18 -15 -37 -28 -43 -29 -13 0 -75 -64 -75 -77 0
-5 18 -29 39 -52 30 -32 39 -50 39 -77 0 -30 -3 -35 -19 -31 -11 3 -26 -1 -33
-9 -8 -8 -19 -14 -25 -14 -6 0 -11 -9 -11 -20 0 -11 5 -20 10 -20 6 0 10 -9
10 -19 0 -11 -4 -23 -10 -26 -16 -10 -12 -42 6 -49 12 -4 15 -19 14 -63 -1
-32 1 -67 5 -79 4 -14 1 -27 -11 -39 -10 -9 -19 -31 -21 -48 -2 -17 -14 -43
-27 -57 -13 -14 -21 -31 -19 -37 3 -7 -1 -13 -9 -13 -7 -1 -24 -14 -38 -30
-24 -30 -53 -39 -65 -20 -12 19 -22 10 -17 -15 2 -15 0 -25 -7 -25 -6 0 -20
-9 -31 -20 -19 -19 -22 -19 -52 -4 -30 16 -31 16 -57 -15 -15 -17 -33 -31 -41
-31 -8 0 -38 -10 -67 -22 -42 -17 -53 -26 -53 -45 0 -20 -5 -23 -36 -23 -27 0
-37 5 -41 20 -5 20 -33 29 -33 11 0 -5 -12 -11 -27 -13 -17 -2 -27 -8 -25 -17
1 -7 -2 -19 -9 -27 -16 -20 -3 -64 20 -64 10 0 24 -7 31 -15 7 -8 18 -15 25
-15 7 0 18 -7 25 -15 7 -9 29 -15 50 -15 21 0 45 -3 54 -6 20 -8 21 -30 1 -38
-25 -9 -17 -44 14 -62 16 -10 32 -26 35 -37 3 -13 10 -18 20 -14 17 7 41 -27
31 -43 -3 -5 2 -24 11 -42 10 -19 12 -34 7 -35 -6 -2 -18 -9 -27 -16 -15 -11
-12 -15 28 -31 39 -16 46 -23 46 -47 0 -35 16 -46 39 -25 20 19 55 11 47 -10
-7 -17 20 -44 44 -44 11 0 20 -10 24 -25 5 -21 11 -24 34 -19 57 12 65 17 118
65 30 27 61 49 69 49 20 0 19 -33 -1 -71 -8 -17 -14 -32 -12 -34 5 -5 67 -9
101 -7 23 2 27 6 27 32 0 17 4 30 9 30 12 0 22 -56 14 -77 -4 -11 -3 -14 5 -9
7 4 12 20 12 36 0 16 5 32 11 36 6 4 8 20 4 40 -5 30 -3 34 15 34 18 0 20 -6
20 -72 0 -70 0 -71 19 -50 22 26 29 27 53 5 14 -13 21 -14 30 -5 9 9 9 15 0
24 -14 14 -16 74 -2 83 6 3 5 15 -2 31 -9 19 -9 27 0 33 12 7 7 32 -25 112 -8
20 -16 64 -17 98 -2 34 -8 67 -14 73 -18 18 -14 49 10 75 l21 23 -36 0 c-44 0
-51 10 -38 55 5 19 6 35 3 35 -4 0 -19 11 -34 24 -23 19 -28 32 -28 69 0 40 3
48 28 59 25 12 27 18 27 71 0 68 -8 78 -80 97 -53 13 -125 56 -125 73 0 6 -7
18 -16 28 -14 15 -13 20 5 50 12 19 21 41 21 50 0 26 27 30 42 7 13 -20 14
-19 41 19 15 21 27 51 27 65 l0 26 79 -2 c61 -3 81 0 85 11 3 8 -4 18 -19 25
-15 6 -25 21 -27 37 -3 23 -7 26 -35 23 -28 -3 -41 5 -93 55 -38 36 -68 57
-80 55 -11 -2 -21 5 -25 17 -7 23 3 71 16 71 5 0 9 14 9 30 0 20 6 33 18 37 9
3 32 22 50 41 24 27 30 37 20 44 -7 4 -16 8 -20 8 -13 0 -9 40 3 40 22 0 98
-55 99 -71 0 -19 20 -29 55 -29 13 0 27 -5 30 -10 5 -8 11 -7 21 1 19 15 44 4
44 -20 0 -22 40 -51 93 -67 32 -10 39 -10 46 5 4 9 6 22 4 29 -3 7 11 27 30
45 43 39 56 70 49 119 -4 35 -11 42 -52 53 -3 1 -14 5 -25 10 -11 4 -34 14
-51 20 -19 8 -37 9 -45 4 -23 -14 -48 -10 -66 11 -10 11 -25 20 -35 20 -10 0
-18 5 -18 10 0 6 -6 10 -14 10 -8 0 -13 11 -13 25 0 33 -3 36 -53 42 -33 5
-45 2 -52 -11 -10 -18 -63 -22 -74 -5 -3 6 -17 8 -29 5 -14 -4 -29 0 -39 9 -8
8 -17 11 -20 6z" id="node1" class="node"></path>
</g>
<g transform="translate(0.000000,215.000000) scale(0.100000,-0.100000)" fill="#FFFFFF" stroke="none">

</g>
</svg>