<svg height="512" viewBox="0 0 60 60" width="512" xmlns="http://www.w3.org/2000/svg"><g id="Page-1" fill="none" fill-rule="evenodd"><g id="063---Phone-Medical-Advice" fill-rule="nonzero" transform="translate(-1)"><path id="Shape" d="m50.113 51.987-6.374 6.374s-10.633 4.961-28.339-12.761-12.761-28.339-12.761-28.339l6.374-6.374c.56114632-.5677787 1.3262157-.88731699 2.1245-.88731699s1.5633537.31953829 2.1245.88731699l7.1 7.085c1.1731656 1.1737871 1.1731656 3.0762129 0 4.25l-4.67 4.66c-.612367.6178514-.761708 1.5577735-.371 2.335 1.8824535 3.4590434 4.3011085 6.5979621 7.166 9.3 2.7020379 2.8648915 5.8409566 5.2835465 9.3 7.166.7772265.390708 1.7171486.241367 2.335-.371l4.66-4.67c1.1737871-1.1731656 3.0762129-1.1731656 4.25 0l7.085 7.1c.5660153.5615265.8840471 1.3260357.8832958 2.1233342-.0007512.7972985-.3202232 1.5612069-.8872958 2.1216658z" fill="#e7ecfb"/><path id="Shape" d="m50.113 47.738-7.085-7.1c-.9635845-.9580652-2.4507988-1.1488389-3.625-.465.2279663.1267002.4381304.2830623.625.465l7.085 7.1c.5677787.5611463.887317 1.3262157.887317 2.1245s-.3195383 1.5633537-.887317 2.1245l-6.374 6.374c-.7890836.3105421-1.6203769.5006676-2.466.564 1.8408453.2542277 3.7158514.0607583 5.466-.564l6.374-6.374c.5677787-.5611463.887317-1.3262157.887317-2.1245s-.3195383-1.5633537-.887317-2.1245z" fill="#c9d8fb"/><path id="Shape" d="m60 4v18c0 1.6568542-1.3431458 3-3 3h-5l-6 9.452c-.2164467.3434693-.5940193.5518222-1 .5518222s-.7835533-.2083529-1-.5518222l-6-9.452h-5c-1.6568542 0-3-1.3431458-3-3v-18c0-1.65685425 1.3431458-3 3-3h24c1.6568542 0 3 1.34314575 3 3z" fill="#a3c1f6"/><path id="Shape" d="m43.5 33.661.5.791c.2164467.3434693.5940193.5518222 1 .5518222s.7835533-.2083529 1-.5518222l6-9.452h-3z" fill="#7fabf9"/><path id="Shape" d="m57 1h-3c1.6568542 0 3 1.34314575 3 3v18c0 1.6568542-1.3431458 3-3 3h3c1.6568542 0 3-1.3431458 3-3v-18c0-1.65685425-1.3431458-3-3-3z" fill="#7fabf9"/><path id="Shape" d="m52 11v4c0 .5522847-.4477153 1-1 1h-2c-.5522847 0-1 .4477153-1 1v2c0 .5522847-.4477153 1-1 1h-4c-.5522847 0-1-.4477153-1-1v-2c0-.5522847-.4477153-1-1-1h-2c-.5522847 0-1-.4477153-1-1v-4c0-.5522847.4477153-1 1-1h2c.5522847 0 1-.44771525 1-1v-2c0-.55228475.4477153-1 1-1h4c.5522847 0 1 .44771525 1 1v2c0 .55228475.4477153 1 1 1h2c.5522847 0 1 .4477153 1 1z" fill="#e7ecfb"/><path id="Shape" d="m15.4 45.6c12.7 12.715 21.756 13.754 25.862 13.326-4.824-.44-12.662-3.119-22.862-13.326-17.722-17.706-12.761-28.339-12.761-28.339l6.374-6.374c.1870168-.1831692.3971216-.3411681.625-.47-1.1739706-.68909732-2.66558269-.4957021-3.625.47l-6.374 6.374s-4.961 10.633 12.761 28.339z" fill="#fff"/><path id="Shape" d="m9.274 40.275 1.564-1.247c.854 1 1.667 2.028 2.552 3l2.71 2.872-1.41 1.41-2.785-2.942c-.91-.999-1.752-2.068-2.631-3.093z" fill="#fff"/><g fill="#428dff"><path id="Shape" d="m12.667 43.7c-.5522847.0027614-1.0022386-.4427153-1.005-.995s.4427153-1.0022386.995-1.005h.01c.5522847 0 1 .4477153 1 1s-.4477153 1-1 1z"/><path id="Shape" d="m21.065 22.929c1.5635475-1.564287 1.5635475-4.099713 0-5.664l-7.092-7.082c-.7487982-.75616452-1.7688179-1.18159807-2.833-1.18159807s-2.08420176.42543355-2.833 1.18159807l-6.375 6.371c-.08015768.083981-.14482136.1814843-.191.288h-.008l-.01.031c-.008.018-.012.037-.019.056-.69961613 2.0916418-.88955189 4.32013-.554 6.5.28602772 2.1121899.84050894 4.1792287 1.65 6.151 1.64769963 3.8515116 3.82687997 7.4531844 6.474 10.7.35549886.4302179.9911051.4940015 1.425.143.2038698-.1651499.3332585-.4049467.3593652-.6660135.0261067-.2610667-.0532353-.5217366-.2203652-.7239865-2.52464231-3.0945611-4.60504226-6.5263291-6.181-10.196-.74501459-1.8111238-1.25645826-3.7097156-1.522-5.65-.11448271-.9524365-.14993707-1.9127145-.106-2.871.03658956-.4671109.09700152-.9320492.181-1.393.06271638-.3777216.1597859-.7489288.29-1.109l6.223-6.223c.789098-.7657518 2.043902-.7657518 2.833 0l7.1 7.085c.7814521.7830574.7814521 2.0509426 0 2.834l-4.676 4.667c-.9104247.9245142-1.1319075 2.3257646-.551 3.486 1.9364145 3.5496033 4.4164206 6.7742861 7.35 9.557 2.7839149 2.9347461 6.0099414 5.4157598 9.561 7.353 1.1632673.579626 2.5663701.3553546 3.491-.558l4.659-4.67c.7831725-.7821177 2.0518275-.7821177 2.835 0l7.089 7.1c.3792057.3737975.5927018.8840326.5927018 1.4165s-.2134961 1.0427025-.5927018 1.4165l-6.234 6.228c-1.3.454-11.264 3.21-27.076-12.61-.3904653-.3907414-1.0237585-.3909653-1.4145-.0005-.3907414.3904653-.3909653 1.0237585-.0005 1.4145 11.55 11.555 20.223 13.7 25.077 13.7 1.5023018.0542722 2.9997847-.1999595 4.4-.747.1058856-.0491114.2020817-.1168551.284-.2l6.371-6.37c.7557272-.7492354 1.1808404-1.7693208 1.1808404-2.8335s-.4251132-2.0842646-1.1808404-2.8335l-7.087-7.095c-1.5651988-1.5613439-4.0988012-1.5613439-5.664 0l-4.653 4.669c-.3118356.3131336-.7898458.3898413-1.184.19-3.3593179-1.842628-6.4109372-4.1975537-9.045-6.98-2.7812328-2.6325258-5.1351514-5.6824649-6.977-9.04-.1964834-.3921738-.1230375-.8657595.183-1.18z"/><path id="Shape" d="m26.97 51.328c.2990505.2073073.6871064.2358099 1.0132375.074422.326131-.161388.5388566-.487191.5554394-.8506914s-.1655949-.7073188-.4756769-.8977306c-3.2938264-2.2113352-6.3524583-4.7542753-9.128-7.589-2.834575-2.7756797-5.3775018-5.8342956-7.589-9.128-.1952456-.2992099-.5352867-.471529-.8920329-.4520463s-.67599943.2278073-.83750001.5465-.14071275.6993364.05453291.9985463c2.2874578 3.4092247 4.917829 6.5753874 7.85 9.449 2.8729904 2.9325511 6.0392293 5.5626506 9.449 7.849z"/><path id="Shape" d="m57 0h-24c-2.209139 0-4 1.790861-4 4v18c0 2.209139 1.790861 4 4 4h4.45l5.709 8.988c.4000699.6304341 1.0948387 1.0123945 1.8415 1.0123945s1.4414301-.3819604 1.8415-1.0123945l5.708-8.988h4.45c2.209139 0 4-1.790861 4-4v-18c0-2.209139-1.790861-4-4-4zm2 22c0 1.1045695-.8954305 2-2 2h-10c-.5522847 0-1 .4477153-1 1s.4477153 1 1 1h3.18l-5.026 7.916c-.0337464.0519914-.0915167.0833669-.1535.0833669s-.1197536-.0313755-.1535-.0833669l-5.027-7.916h3.18c.5522847 0 1-.4477153 1-1s-.4477153-1-1-1h-10c-1.1045695 0-2-.8954305-2-2v-18c0-1.1045695.8954305-2 2-2h24c1.1045695 0 2 .8954305 2 2z"/><path id="Shape" d="m51 9h-2v-2c0-1.1045695-.8954305-2-2-2h-4c-1.1045695 0-2 .8954305-2 2v2h-2c-1.1045695 0-2 .8954305-2 2v4c0 1.1045695.8954305 2 2 2h2v2c0 1.1045695.8954305 2 2 2h4c1.1045695 0 2-.8954305 2-2v-2h2c1.1045695 0 2-.8954305 2-2v-4c0-1.1045695-.8954305-2-2-2zm0 6h-2c-1.1045695 0-2 .8954305-2 2v2h-4v-2c0-1.1045695-.8954305-2-2-2h-2v-4h2c1.1045695 0 2-.8954305 2-2v-2h4v2c0 1.1045695.8954305 2 2 2h2z"/></g></g></g></svg>